# xmcd
#
# Track frame offsets: 
#        150
#        18150
#        30040
#        45103
#        60341
#        75363
#        89539
#        99658
#        113083
#        130644
#
# Disc length: 2072 seconds
#
# Revision: 0
# Processed by: cddbd v1.5.2PL0 Copyright (c) Steve Scherf et al.
# Submitted via: ExactAudioCopy v1.5
#
DISCID=5c08160a
DTITLE=Kanoka - Chameleon
DYEAR=2019
DGENRE=Country
TTITLE0=Bombs
TTITLE1=Drugs
TTITLE2=Can't You See
TTITLE3=52-Hertz Whale
TTITLE4=52-Hertz Whale (Piano Version)
TTITLE5=Still Love You
TTITLE6=Selfie
TTITLE7=Black Heart
TTITLE8=Invisible
TTITLE9=Invisible (Extended Version)
EXTD=
EXTT0=
EXTT1=
EXTT2=
EXTT3=
EXTT4=
EXTT5=
EXTT6=
EXTT7=
EXTT8=
EXTT9=
PLAYORDER=
